<svg width="1280" height="476" viewBox="0 0 1280 476" fill="none" xmlns="http://www.w3.org/2000/svg">
<path d="M60.15 -13.7191L49.6513 -25.9599C41.2117 -35.8107 41.2117 -50.383 49.6513 -60.2339C58.6419 -70.7259 58.6419 -86.2599 49.6513 -96.7811C41.2117 -106.632 41.2117 -121.204 49.6513 -131.055C58.4679 -141.343 57.9168 -156.761 48.3462 -166.349C38.2535 -176.492 21.8964 -176.492 11.8038 -166.349C2.23315 -156.731 1.68211 -141.343 10.4987 -131.055C18.9383 -121.204 18.9383 -106.632 10.4987 -96.7811C1.5081 -86.2891 1.5081 -70.7551 10.4987 -60.2339C18.9383 -50.383 18.9383 -35.8107 10.4987 -25.9599L0 -13.7191L10.4987 -1.47842C18.9383 8.37244 18.9383 22.9447 10.4987 32.7956C1.5081 43.2876 1.5081 58.8217 10.4987 69.3429C18.9383 79.1937 18.9383 93.766 10.4987 103.617C1.68211 113.905 2.23315 129.322 11.8038 138.911C21.8964 149.053 38.2535 149.053 48.3462 138.911C57.9168 129.293 58.4679 113.905 49.6513 103.617C41.2117 93.766 41.2117 79.1937 49.6513 69.3429C58.6419 58.8508 58.6419 43.3168 49.6513 32.7956C41.2117 22.9447 41.2117 8.37244 49.6513 -1.47842L60.15 -13.7191Z" fill="#FBE525"/>
<path d="M182.453 -10.0175L171.954 -22.2582C163.514 -32.109 163.514 -46.6813 171.954 -56.5322C180.945 -67.0242 180.945 -82.5583 171.954 -93.0795C163.514 -102.93 163.514 -117.503 171.954 -127.353C180.771 -137.642 180.22 -153.059 170.649 -162.648C160.556 -172.79 144.199 -172.79 134.107 -162.648C124.536 -153.03 123.985 -137.642 132.801 -127.353C141.241 -117.503 141.241 -102.93 132.801 -93.0795C123.811 -82.5874 123.811 -67.0534 132.801 -56.5322C141.241 -46.6813 141.241 -32.109 132.801 -22.2582L122.303 -10.0175L132.801 2.22325C141.241 12.0741 141.241 26.6464 132.801 36.4972C123.811 46.9893 123.811 62.5233 132.801 73.0445C141.241 82.8954 141.241 97.4677 132.801 107.319C123.985 117.607 124.536 133.024 134.107 142.613C144.199 152.755 160.556 152.755 170.649 142.613C180.22 132.995 180.771 117.607 171.954 107.319C163.514 97.4677 163.514 82.8954 171.954 73.0445C180.945 62.5525 180.945 47.0184 171.954 36.4972C163.514 26.6464 163.514 12.0741 171.954 2.22325L182.453 -10.0175Z" fill="#FBE525"/>
<path d="M121.287 -37.7632L110.788 -50.0039C102.348 -59.8548 102.348 -74.4271 110.788 -84.2779C119.779 -94.77 119.779 -110.304 110.788 -120.825C102.348 -130.676 102.348 -145.248 110.788 -155.099C119.605 -165.387 119.054 -180.805 109.483 -190.393C99.3903 -200.536 83.0332 -200.536 72.9405 -190.393C63.3699 -180.776 62.8188 -165.387 71.6354 -155.099C80.075 -145.248 80.075 -130.676 71.6354 -120.825C62.6448 -110.333 62.6448 -94.7991 71.6354 -84.2779C80.075 -74.4271 80.075 -59.8548 71.6354 -50.0039L61.1367 -37.7632L71.6354 -25.5225C80.075 -15.6716 80.075 -1.09933 71.6354 8.75153C62.6448 19.2436 62.6448 34.7776 71.6354 45.2988C80.075 55.1497 80.075 69.722 71.6354 79.5728C62.8188 89.8608 63.3699 105.278 72.9405 114.867C83.0332 125.009 99.3903 125.009 109.483 114.867C119.054 105.249 119.605 89.8608 110.788 79.5728C102.348 69.722 102.348 55.1497 110.788 45.2988C119.779 34.8068 119.779 19.2727 110.788 8.75153C102.348 -1.09933 102.348 -15.6716 110.788 -25.5225L121.287 -37.7632Z" fill="#FBE525"/>
<path d="M243.587 -34.1198L233.089 -46.3605C224.649 -56.2113 224.649 -70.7836 233.089 -80.6345C242.079 -91.1265 242.079 -106.661 233.089 -117.182C224.649 -127.033 224.649 -141.605 233.089 -151.456C241.905 -161.744 241.354 -177.161 231.784 -186.75C221.691 -196.892 205.334 -196.892 195.241 -186.75C185.671 -177.132 185.12 -161.744 193.936 -151.456C202.376 -141.605 202.376 -127.033 193.936 -117.182C184.946 -106.69 184.946 -91.1557 193.936 -80.6345C202.376 -70.7836 202.376 -56.2113 193.936 -46.3605L183.438 -34.1198L193.936 -21.8791C202.376 -12.0282 202.376 2.5441 193.936 12.395C184.946 22.887 184.946 38.4211 193.936 48.9422C202.376 58.7931 202.376 73.3654 193.936 83.2162C185.12 93.5043 185.671 108.922 195.241 118.51C205.334 128.653 221.691 128.653 231.784 118.51C241.354 108.893 241.905 93.5043 233.089 83.2162C224.649 73.3654 224.649 58.7931 233.089 48.9422C242.079 38.4502 242.079 22.9161 233.089 12.395C224.649 2.5441 224.649 -12.0282 233.089 -21.8791L243.587 -34.1198Z" fill="#FBE525"/>
<path d="M304.113 -13.7191L293.614 -25.9599C285.175 -35.8107 285.175 -50.383 293.614 -60.2339C302.605 -70.7259 302.605 -86.2599 293.614 -96.7811C285.175 -106.632 285.175 -121.204 293.614 -131.055C302.431 -141.343 301.88 -156.761 292.309 -166.349C282.216 -176.492 265.859 -176.492 255.767 -166.349C246.196 -156.731 245.645 -141.343 254.462 -131.055C262.901 -121.204 262.901 -106.632 254.462 -96.7811C245.471 -86.2891 245.471 -70.7551 254.462 -60.2339C262.901 -50.383 262.901 -35.8107 254.462 -25.9599L243.963 -13.7191L254.462 -1.47842C262.901 8.37244 262.901 22.9447 254.462 32.7956C245.471 43.2876 245.471 58.8217 254.462 69.3429C262.901 79.1937 262.901 93.766 254.462 103.617C245.645 113.905 246.196 129.322 255.767 138.911C265.859 149.053 282.216 149.053 292.309 138.911C301.88 129.293 302.431 113.905 293.614 103.617C285.175 93.766 285.175 79.1937 293.614 69.3429C302.605 58.8508 302.605 43.3168 293.614 32.7956C285.175 22.9447 285.175 8.37244 293.614 -1.47842L304.113 -13.7191Z" fill="#FBE525"/>
<path d="M426.416 -10.0175L415.917 -22.2582C407.477 -32.109 407.477 -46.6813 415.917 -56.5322C424.907 -67.0242 424.907 -82.5583 415.917 -93.0795C407.477 -102.93 407.477 -117.503 415.917 -127.353C424.733 -137.642 424.182 -153.059 414.612 -162.648C404.519 -172.79 388.162 -172.79 378.069 -162.648C368.499 -153.03 367.948 -137.642 376.764 -127.353C385.204 -117.503 385.204 -102.93 376.764 -93.0795C367.774 -82.5874 367.774 -67.0534 376.764 -56.5322C385.204 -46.6813 385.204 -32.109 376.764 -22.2582L366.266 -10.0175L376.764 2.22325C385.204 12.0741 385.204 26.6464 376.764 36.4972C367.774 46.9893 367.774 62.5233 376.764 73.0445C385.204 82.8954 385.204 97.4677 376.764 107.319C367.948 117.607 368.499 133.024 378.069 142.613C388.162 152.755 404.519 152.755 414.612 142.613C424.182 132.995 424.733 117.607 415.917 107.319C407.477 97.4677 407.477 82.8954 415.917 73.0445C424.907 62.5525 424.907 47.0184 415.917 36.4972C407.477 26.6464 407.477 12.0741 415.917 2.22325L426.416 -10.0175Z" fill="#FBE525"/>
<path d="M365.25 -37.7632L354.751 -50.0039C346.311 -59.8548 346.311 -74.4271 354.751 -84.2779C363.741 -94.77 363.741 -110.304 354.751 -120.825C346.311 -130.676 346.311 -145.248 354.751 -155.099C363.567 -165.387 363.016 -180.805 353.446 -190.393C343.353 -200.536 326.996 -200.536 316.903 -190.393C307.333 -180.776 306.782 -165.387 315.598 -155.099C324.038 -145.248 324.038 -130.676 315.598 -120.825C306.608 -110.333 306.608 -94.7991 315.598 -84.2779C324.038 -74.4271 324.038 -59.8548 315.598 -50.0039L305.1 -37.7632L315.598 -25.5225C324.038 -15.6716 324.038 -1.09933 315.598 8.75153C306.608 19.2436 306.608 34.7776 315.598 45.2988C324.038 55.1497 324.038 69.722 315.598 79.5728C306.782 89.8608 307.333 105.278 316.903 114.867C326.996 125.009 343.353 125.009 353.446 114.867C363.016 105.249 363.567 89.8608 354.751 79.5728C346.311 69.722 346.311 55.1497 354.751 45.2988C363.741 34.8068 363.741 19.2727 354.751 8.75153C346.311 -1.09933 346.311 -15.6716 354.751 -25.5225L365.25 -37.7632Z" fill="#FBE525"/>
<path d="M487.552 -34.1198L477.054 -46.3605C468.614 -56.2113 468.614 -70.7836 477.054 -80.6345C486.044 -91.1265 486.044 -106.661 477.054 -117.182C468.614 -127.033 468.614 -141.605 477.054 -151.456C485.87 -161.744 485.319 -177.161 475.749 -186.75C465.656 -196.892 449.299 -196.892 439.206 -186.75C429.635 -177.132 429.084 -161.744 437.901 -151.456C446.341 -141.605 446.341 -127.033 437.901 -117.182C428.91 -106.69 428.91 -91.1557 437.901 -80.6345C446.341 -70.7836 446.341 -56.2113 437.901 -46.3605L427.402 -34.1198L437.901 -21.8791C446.341 -12.0282 446.341 2.5441 437.901 12.395C428.91 22.887 428.91 38.4211 437.901 48.9422C446.341 58.7931 446.341 73.3654 437.901 83.2162C429.084 93.5043 429.635 108.922 439.206 118.51C449.299 128.653 465.656 128.653 475.749 118.51C485.319 108.893 485.87 93.5043 477.054 83.2162C468.614 73.3654 468.614 58.7931 477.054 48.9422C486.044 38.4502 486.044 22.9161 477.054 12.395C468.614 2.5441 468.614 -12.0282 477.054 -21.8791L487.552 -34.1198Z" fill="#FBE525"/>
<path d="M548.08 -13.7193L537.581 -25.96C529.141 -35.8108 529.141 -50.3831 537.581 -60.234C546.572 -70.726 546.572 -86.2601 537.581 -96.7812C529.141 -106.632 529.141 -121.204 537.581 -131.055C546.398 -141.343 545.847 -156.761 536.276 -166.349C526.183 -176.492 509.826 -176.492 499.733 -166.349C490.163 -156.732 489.612 -141.343 498.428 -131.055C506.868 -121.204 506.868 -106.632 498.428 -96.7812C489.438 -86.2892 489.438 -70.7552 498.428 -60.234C506.868 -50.3831 506.868 -35.8108 498.428 -25.96L487.93 -13.7193L498.428 -1.47855C506.868 8.37231 506.868 22.9446 498.428 32.7955C489.438 43.2875 489.438 58.8216 498.428 69.3428C506.868 79.1936 506.868 93.7659 498.428 103.617C489.612 113.905 490.163 129.322 499.733 138.911C509.826 149.053 526.183 149.053 536.276 138.911C545.847 129.293 546.398 113.905 537.581 103.617C529.141 93.7659 529.141 79.1936 537.581 69.3428C546.572 58.8507 546.572 43.3167 537.581 32.7955C529.141 22.9446 529.141 8.37231 537.581 -1.47855L548.08 -13.7193Z" fill="#FBE525"/>
<path d="M670.38 -10.0173L659.882 -22.2581C651.442 -32.1089 651.442 -46.6812 659.882 -56.5321C668.872 -67.0241 668.872 -82.5582 659.882 -93.0793C651.442 -102.93 651.442 -117.502 659.882 -127.353C668.698 -137.641 668.147 -153.059 658.577 -162.647C648.484 -172.79 632.127 -172.79 622.034 -162.647C612.464 -153.03 611.913 -137.641 620.729 -127.353C629.169 -117.502 629.169 -102.93 620.729 -93.0793C611.739 -82.5873 611.739 -67.0533 620.729 -56.5321C629.169 -46.6812 629.169 -32.1089 620.729 -22.2581L610.23 -10.0173L620.729 2.22337C629.169 12.0742 629.169 26.6465 620.729 36.4973C611.739 46.9894 611.739 62.5235 620.729 73.0446C629.169 82.8955 629.169 97.4678 620.729 107.319C611.913 117.607 612.464 133.024 622.034 142.613C632.127 152.755 648.484 152.755 658.577 142.613C668.147 132.995 668.698 117.607 659.882 107.319C651.442 97.4678 651.442 82.8955 659.882 73.0446C668.872 62.5526 668.872 47.0185 659.882 36.4973C651.442 26.6465 651.442 12.0742 659.882 2.22337L670.38 -10.0173Z" fill="#FBE525"/>
<path d="M609.244 -37.7632L598.745 -50.0039C590.305 -59.8548 590.305 -74.4271 598.745 -84.2779C607.736 -94.77 607.736 -110.304 598.745 -120.825C590.305 -130.676 590.305 -145.248 598.745 -155.099C607.562 -165.387 607.011 -180.805 597.44 -190.393C587.347 -200.536 570.99 -200.536 560.898 -190.393C551.327 -180.776 550.776 -165.387 559.592 -155.099C568.032 -145.248 568.032 -130.676 559.592 -120.825C550.602 -110.333 550.602 -94.7991 559.592 -84.2779C568.032 -74.4271 568.032 -59.8548 559.592 -50.0039L549.094 -37.7632L559.592 -25.5225C568.032 -15.6716 568.032 -1.09933 559.592 8.75153C550.602 19.2436 550.602 34.7776 559.592 45.2988C568.032 55.1497 568.032 69.722 559.592 79.5728C550.776 89.8608 551.327 105.278 560.898 114.867C570.99 125.009 587.347 125.009 597.44 114.867C607.011 105.249 607.562 89.8608 598.745 79.5728C590.305 69.722 590.305 55.1497 598.745 45.2988C607.736 34.8068 607.736 19.2727 598.745 8.75153C590.305 -1.09933 590.305 -15.6716 598.745 -25.5225L609.244 -37.7632Z" fill="#FBE525"/>
<path d="M731.515 -34.1198L721.017 -46.3605C712.577 -56.2113 712.577 -70.7836 721.017 -80.6345C730.007 -91.1265 730.007 -106.661 721.017 -117.182C712.577 -127.033 712.577 -141.605 721.017 -151.456C729.833 -161.744 729.282 -177.161 719.711 -186.75C709.619 -196.892 693.262 -196.892 683.169 -186.75C673.598 -177.132 673.047 -161.744 681.864 -151.456C690.304 -141.605 690.304 -127.033 681.864 -117.182C672.873 -106.69 672.873 -91.1557 681.864 -80.6345C690.304 -70.7836 690.304 -56.2113 681.864 -46.3605L671.365 -34.1198L681.864 -21.8791C690.304 -12.0282 690.304 2.5441 681.864 12.395C672.873 22.887 672.873 38.4211 681.864 48.9422C690.304 58.7931 690.304 73.3654 681.864 83.2162C673.047 93.5043 673.598 108.922 683.169 118.51C693.262 128.653 709.619 128.653 719.711 118.51C729.282 108.893 729.833 93.5043 721.017 83.2162C712.577 73.3654 712.577 58.7931 721.017 48.9422C730.007 38.4502 730.007 22.9161 721.017 12.395C712.577 2.5441 712.577 -12.0282 721.017 -21.8791L731.515 -34.1198Z" fill="#FBE525"/>
<path d="M792.043 -13.7193L781.544 -25.96C773.104 -35.8108 773.104 -50.3831 781.544 -60.234C790.534 -70.726 790.534 -86.2601 781.544 -96.7812C773.104 -106.632 773.104 -121.204 781.544 -131.055C790.36 -141.343 789.809 -156.761 780.239 -166.349C770.146 -176.492 753.789 -176.492 743.696 -166.349C734.126 -156.732 733.575 -141.343 742.391 -131.055C750.831 -121.204 750.831 -106.632 742.391 -96.7812C733.401 -86.2892 733.401 -70.7552 742.391 -60.234C750.831 -50.3831 750.831 -35.8108 742.391 -25.96L731.893 -13.7193L742.391 -1.47855C750.831 8.37231 750.831 22.9446 742.391 32.7955C733.401 43.2875 733.401 58.8216 742.391 69.3428C750.831 79.1936 750.831 93.7659 742.391 103.617C733.575 113.905 734.126 129.322 743.696 138.911C753.789 149.053 770.146 149.053 780.239 138.911C789.809 129.293 790.36 113.905 781.544 103.617C773.104 93.7659 773.104 79.1936 781.544 69.3428C790.534 58.8507 790.534 43.3167 781.544 32.7955C773.104 22.9446 773.104 8.37231 781.544 -1.47855L792.043 -13.7193Z" fill="#FBE525"/>
<path d="M914.343 -10.0173L903.845 -22.2581C895.405 -32.1089 895.405 -46.6812 903.845 -56.5321C912.835 -67.0241 912.835 -82.5582 903.845 -93.0793C895.405 -102.93 895.405 -117.502 903.845 -127.353C912.661 -137.641 912.11 -153.059 902.54 -162.647C892.447 -172.79 876.09 -172.79 865.997 -162.647C856.427 -153.03 855.876 -137.641 864.692 -127.353C873.132 -117.502 873.132 -102.93 864.692 -93.0793C855.702 -82.5873 855.702 -67.0533 864.692 -56.5321C873.132 -46.6812 873.132 -32.1089 864.692 -22.2581L854.193 -10.0173L864.692 2.22337C873.132 12.0742 873.132 26.6465 864.692 36.4973C855.702 46.9894 855.702 62.5235 864.692 73.0446C873.132 82.8955 873.132 97.4678 864.692 107.319C855.876 117.607 856.427 133.024 865.997 142.613C876.09 152.755 892.447 152.755 902.54 142.613C912.11 132.995 912.661 117.607 903.845 107.319C895.405 97.4678 895.405 82.8955 903.845 73.0446C912.835 62.5526 912.835 47.0185 903.845 36.4973C895.405 26.6465 895.405 12.0742 903.845 2.22337L914.343 -10.0173Z" fill="#FBE525"/>
<path d="M853.209 -37.7632L842.71 -50.0039C834.27 -59.8548 834.27 -74.4271 842.71 -84.2779C851.7 -94.77 851.7 -110.304 842.71 -120.825C834.27 -130.676 834.27 -145.248 842.71 -155.099C851.526 -165.387 850.975 -180.805 841.405 -190.393C831.312 -200.536 814.955 -200.536 804.862 -190.393C795.292 -180.776 794.741 -165.387 803.557 -155.099C811.997 -145.248 811.997 -130.676 803.557 -120.825C794.567 -110.333 794.567 -94.7991 803.557 -84.2779C811.997 -74.4271 811.997 -59.8548 803.557 -50.0039L793.059 -37.7632L803.557 -25.5225C811.997 -15.6716 811.997 -1.09933 803.557 8.75153C794.567 19.2436 794.567 34.7776 803.557 45.2988C811.997 55.1497 811.997 69.722 803.557 79.5728C794.741 89.8608 795.292 105.278 804.862 114.867C814.955 125.009 831.312 125.009 841.405 114.867C850.975 105.249 851.526 89.8608 842.71 79.5728C834.27 69.722 834.27 55.1497 842.71 45.2988C851.7 34.8068 851.7 19.2727 842.71 8.75153C834.27 -1.09933 834.27 -15.6716 842.71 -25.5225L853.209 -37.7632Z" fill="#FBE525"/>
<path d="M975.48 -34.1196L964.981 -46.3604C956.542 -56.2112 956.542 -70.7835 964.981 -80.6344C973.972 -91.1264 973.972 -106.66 964.981 -117.182C956.542 -127.033 956.542 -141.605 964.981 -151.456C973.798 -161.744 973.247 -177.161 963.676 -186.75C953.584 -196.892 937.227 -196.892 927.134 -186.75C917.563 -177.132 917.012 -161.744 925.829 -151.456C934.268 -141.605 934.268 -127.033 925.829 -117.182C916.838 -106.69 916.838 -91.1556 925.829 -80.6344C934.268 -70.7835 934.268 -56.2112 925.829 -46.3604L915.33 -34.1196L925.829 -21.8789C934.268 -12.0281 934.268 2.54422 925.829 12.3951C916.838 22.8871 916.838 38.4212 925.829 48.9424C934.268 58.7932 934.268 73.3655 925.829 83.2164C917.012 93.5044 917.563 108.922 927.134 118.51C937.227 128.653 953.584 128.653 963.676 118.51C973.247 108.893 973.798 93.5044 964.981 83.2164C956.542 73.3655 956.542 58.7932 964.981 48.9424C973.972 38.4503 973.972 22.9163 964.981 12.3951C956.542 2.54422 956.542 -12.0281 964.981 -21.8789L975.48 -34.1196Z" fill="#FBE525"/>
<path d="M1036.04 -13.7193L1025.54 -25.96C1017.1 -35.8108 1017.1 -50.3831 1025.54 -60.234C1034.53 -70.726 1034.53 -86.2601 1025.54 -96.7812C1017.1 -106.632 1017.1 -121.204 1025.54 -131.055C1034.35 -141.343 1033.8 -156.761 1024.23 -166.349C1014.14 -176.492 997.783 -176.492 987.69 -166.349C978.12 -156.732 977.569 -141.343 986.385 -131.055C994.825 -121.204 994.825 -106.632 986.385 -96.7812C977.395 -86.2892 977.395 -70.7552 986.385 -60.234C994.825 -50.3831 994.825 -35.8108 986.385 -25.96L975.887 -13.7193L986.385 -1.47855C994.825 8.37231 994.825 22.9446 986.385 32.7955C977.395 43.2875 977.395 58.8216 986.385 69.3428C994.825 79.1936 994.825 93.7659 986.385 103.617C977.569 113.905 978.12 129.322 987.69 138.911C997.783 149.053 1014.14 149.053 1024.23 138.911C1033.8 129.293 1034.35 113.905 1025.54 103.617C1017.1 93.7659 1017.1 79.1936 1025.54 69.3428C1034.53 58.8507 1034.53 43.3167 1025.54 32.7955C1017.1 22.9446 1017.1 8.37231 1025.54 -1.47855L1036.04 -13.7193Z" fill="#FBE525"/>
<path d="M1158.31 -10.0175L1147.81 -22.2582C1139.37 -32.109 1139.37 -46.6813 1147.81 -56.5322C1156.8 -67.0242 1156.8 -82.5583 1147.81 -93.0795C1139.37 -102.93 1139.37 -117.503 1147.81 -127.353C1156.63 -137.642 1156.07 -153.059 1146.5 -162.648C1136.41 -172.79 1120.05 -172.79 1109.96 -162.648C1100.39 -153.03 1099.84 -137.642 1108.66 -127.353C1117.1 -117.503 1117.1 -102.93 1108.66 -93.0795C1099.67 -82.5874 1099.67 -67.0534 1108.66 -56.5322C1117.1 -46.6813 1117.1 -32.109 1108.66 -22.2582L1098.16 -10.0175L1108.66 2.22325C1117.1 12.0741 1117.1 26.6464 1108.66 36.4972C1099.67 46.9893 1099.67 62.5233 1108.66 73.0445C1117.1 82.8954 1117.1 97.4677 1108.66 107.319C1099.84 117.607 1100.39 133.024 1109.96 142.613C1120.05 152.755 1136.41 152.755 1146.5 142.613C1156.07 132.995 1156.63 117.607 1147.81 107.319C1139.37 97.4677 1139.37 82.8954 1147.81 73.0445C1156.8 62.5525 1156.8 47.0184 1147.81 36.4972C1139.37 26.6464 1139.37 12.0741 1147.81 2.22325L1158.31 -10.0175Z" fill="#FBE525"/>
<path d="M1097.17 -37.7632L1086.67 -50.0039C1078.23 -59.8548 1078.23 -74.4271 1086.67 -84.2779C1095.66 -94.77 1095.66 -110.304 1086.67 -120.825C1078.23 -130.676 1078.23 -145.248 1086.67 -155.099C1095.49 -165.387 1094.94 -180.805 1085.37 -190.393C1075.28 -200.536 1058.92 -200.536 1048.83 -190.393C1039.25 -180.776 1038.7 -165.387 1047.52 -155.099C1055.96 -145.248 1055.96 -130.676 1047.52 -120.825C1038.53 -110.333 1038.53 -94.7991 1047.52 -84.2779C1055.96 -74.4271 1055.96 -59.8548 1047.52 -50.0039L1037.02 -37.7632L1047.52 -25.5225C1055.96 -15.6716 1055.96 -1.09933 1047.52 8.75153C1038.53 19.2436 1038.53 34.7776 1047.52 45.2988C1055.96 55.1497 1055.96 69.722 1047.52 79.5728C1038.7 89.8608 1039.25 105.278 1048.83 114.867C1058.92 125.009 1075.28 125.009 1085.37 114.867C1094.94 105.249 1095.49 89.8608 1086.67 79.5728C1078.23 69.722 1078.23 55.1497 1086.67 45.2988C1095.66 34.8068 1095.66 19.2727 1086.67 8.75153C1078.23 -1.09933 1078.23 -15.6716 1086.67 -25.5225L1097.17 -37.7632Z" fill="#FBE525"/>
<path d="M1219.47 -34.1198L1208.97 -46.3605C1200.53 -56.2113 1200.53 -70.7836 1208.97 -80.6345C1217.96 -91.1265 1217.96 -106.661 1208.97 -117.182C1200.53 -127.033 1200.53 -141.605 1208.97 -151.456C1217.79 -161.744 1217.24 -177.161 1207.67 -186.75C1197.58 -196.892 1181.22 -196.892 1171.13 -186.75C1161.56 -177.132 1161 -161.744 1169.82 -151.456C1178.26 -141.605 1178.26 -127.033 1169.82 -117.182C1160.83 -106.69 1160.83 -91.1557 1169.82 -80.6345C1178.26 -70.7836 1178.26 -56.2113 1169.82 -46.3605L1159.32 -34.1198L1169.82 -21.8791C1178.26 -12.0282 1178.26 2.5441 1169.82 12.395C1160.83 22.887 1160.83 38.4211 1169.82 48.9422C1178.26 58.7931 1178.26 73.3654 1169.82 83.2162C1161 93.5043 1161.56 108.922 1171.13 118.51C1181.22 128.653 1197.58 128.653 1207.67 118.51C1217.24 108.893 1217.79 93.5043 1208.97 83.2162C1200.53 73.3654 1200.53 58.7931 1208.97 48.9422C1217.96 38.4502 1217.96 22.9161 1208.97 12.395C1200.53 2.5441 1200.53 -12.0282 1208.97 -21.8791L1219.47 -34.1198Z" fill="#FBE525"/>
<path d="M1280 -13.7191L1269.5 -25.9599C1261.06 -35.8107 1261.06 -50.383 1269.5 -60.2339C1278.49 -70.7259 1278.49 -86.2599 1269.5 -96.7811C1261.06 -106.632 1261.06 -121.204 1269.5 -131.055C1278.32 -141.343 1277.77 -156.761 1268.2 -166.349C1258.1 -176.492 1241.75 -176.492 1231.65 -166.349C1222.08 -156.731 1221.53 -141.343 1230.35 -131.055C1238.79 -121.204 1238.79 -106.632 1230.35 -96.7811C1221.36 -86.2891 1221.36 -70.7551 1230.35 -60.2339C1238.79 -50.383 1238.79 -35.8107 1230.35 -25.9599L1219.85 -13.7191L1230.35 -1.47842C1238.79 8.37244 1238.79 22.9447 1230.35 32.7956C1221.36 43.2876 1221.36 58.8217 1230.35 69.3429C1238.79 79.1937 1238.79 93.766 1230.35 103.617C1221.53 113.905 1222.08 129.322 1231.65 138.911C1241.75 149.053 1258.1 149.053 1268.2 138.911C1277.77 129.293 1278.32 113.905 1269.5 103.617C1261.06 93.766 1261.06 79.1937 1269.5 69.3429C1278.49 58.8508 1278.49 43.3168 1269.5 32.7956C1261.06 22.9447 1261.06 8.37244 1269.5 -1.47842L1280 -13.7191Z" fill="#FBE525"/>
<path d="M60.15 311.359L49.6513 299.119C41.2117 289.268 41.2117 274.696 49.6513 264.845C58.6419 254.353 58.6419 238.819 49.6513 228.297C41.2117 218.446 41.2117 203.874 49.6513 194.023C58.4679 183.735 57.9168 168.318 48.3462 158.729C38.2535 148.587 21.8964 148.587 11.8038 158.729C2.23315 168.347 1.68211 183.735 10.4987 194.023C18.9383 203.874 18.9383 218.446 10.4987 228.297C1.5081 238.789 1.5081 254.323 10.4987 264.845C18.9383 274.696 18.9383 289.268 10.4987 299.119L0 311.359L10.4987 323.6C18.9383 333.451 18.9383 348.023 10.4987 357.874C1.5081 368.366 1.5081 383.9 10.4987 394.421C18.9383 404.272 18.9383 418.845 10.4987 428.695C1.68211 438.983 2.23315 454.401 11.8038 463.989C21.8964 474.132 38.2535 474.132 48.3462 463.989C57.9168 454.372 58.4679 438.983 49.6513 428.695C41.2117 418.845 41.2117 404.272 49.6513 394.421C58.6419 383.929 58.6419 368.395 49.6513 357.874C41.2117 348.023 41.2117 333.451 49.6513 323.6L60.15 311.359Z" fill="#FBE525"/>
<path d="M182.453 315.032L171.954 302.791C163.514 292.94 163.514 278.368 171.954 268.517C180.945 258.025 180.945 242.491 171.954 231.97C163.514 222.119 163.514 207.546 171.954 197.696C180.771 187.408 180.22 171.99 170.649 162.402C160.556 152.259 144.199 152.259 134.107 162.402C124.536 172.019 123.985 187.408 132.801 197.696C141.241 207.546 141.241 222.119 132.801 231.97C123.811 242.462 123.811 257.996 132.801 268.517C141.241 278.368 141.241 292.94 132.801 302.791L122.303 315.032L132.801 327.272C141.241 337.123 141.241 351.695 132.801 361.546C123.811 372.038 123.811 387.572 132.801 398.094C141.241 407.944 141.241 422.517 132.801 432.368C123.985 442.656 124.536 458.073 134.107 467.662C144.199 477.804 160.556 477.804 170.649 467.662C180.22 458.044 180.771 442.656 171.954 432.368C163.514 422.517 163.514 407.944 171.954 398.094C180.945 387.602 180.945 372.067 171.954 361.546C163.514 351.695 163.514 337.123 171.954 327.272L182.453 315.032Z" fill="#FBE525"/>
<path d="M121.287 287.315L110.788 275.074C102.348 265.223 102.348 250.651 110.788 240.8C119.779 230.308 119.779 214.774 110.788 204.253C102.348 194.402 102.348 179.83 110.788 169.979C119.605 159.691 119.054 144.273 109.483 134.685C99.3903 124.542 83.0332 124.542 72.9405 134.685C63.3699 144.302 62.8188 159.691 71.6354 169.979C80.075 179.83 80.075 194.402 71.6354 204.253C62.6448 214.745 62.6448 230.279 71.6354 240.8C80.075 250.651 80.075 265.223 71.6354 275.074L61.1367 287.315L71.6354 299.555C80.075 309.406 80.075 323.979 71.6354 333.829C62.6448 344.321 62.6448 359.855 71.6354 370.377C80.075 380.228 80.075 394.8 71.6354 404.651C62.8188 414.939 63.3699 430.356 72.9405 439.945C83.0332 450.087 99.3903 450.087 109.483 439.945C119.054 430.327 119.605 414.939 110.788 404.651C102.348 394.8 102.348 380.228 110.788 370.377C119.779 359.885 119.779 344.351 110.788 333.829C102.348 323.979 102.348 309.406 110.788 299.555L121.287 287.315Z" fill="#FBE525"/>
<path d="M243.587 290.958L233.089 278.718C224.649 268.867 224.649 254.294 233.089 244.444C242.079 233.951 242.079 218.417 233.089 207.896C224.649 198.045 224.649 183.473 233.089 173.622C241.905 163.334 241.354 147.917 231.784 138.328C221.691 128.186 205.334 128.186 195.241 138.328C185.671 147.946 185.12 163.334 193.936 173.622C202.376 183.473 202.376 198.045 193.936 207.896C184.946 218.388 184.946 233.922 193.936 244.444C202.376 254.294 202.376 268.867 193.936 278.718L183.438 290.958L193.936 303.199C202.376 313.05 202.376 327.622 193.936 337.473C184.946 347.965 184.946 363.499 193.936 374.02C202.376 383.871 202.376 398.443 193.936 408.294C185.12 418.582 185.671 434 195.241 443.588C205.334 453.731 221.691 453.731 231.784 443.588C241.354 433.971 241.905 418.582 233.089 408.294C224.649 398.443 224.649 383.871 233.089 374.02C242.079 363.528 242.079 347.994 233.089 337.473C224.649 327.622 224.649 313.05 233.089 303.199L243.587 290.958Z" fill="#FBE525"/>
<path d="M304.113 311.359L293.614 299.119C285.175 289.268 285.175 274.696 293.614 264.845C302.605 254.353 302.605 238.819 293.614 228.297C285.175 218.446 285.175 203.874 293.614 194.023C302.431 183.735 301.88 168.318 292.309 158.729C282.216 148.587 265.859 148.587 255.767 158.729C246.196 168.347 245.645 183.735 254.462 194.023C262.901 203.874 262.901 218.446 254.462 228.297C245.471 238.789 245.471 254.323 254.462 264.845C262.901 274.696 262.901 289.268 254.462 299.119L243.963 311.359L254.462 323.6C262.901 333.451 262.901 348.023 254.462 357.874C245.471 368.366 245.471 383.9 254.462 394.421C262.901 404.272 262.901 418.845 254.462 428.695C245.645 438.983 246.196 454.401 255.767 463.989C265.859 474.132 282.216 474.132 292.309 463.989C301.88 454.372 302.431 438.983 293.614 428.695C285.175 418.845 285.175 404.272 293.614 394.421C302.605 383.929 302.605 368.395 293.614 357.874C285.175 348.023 285.175 333.451 293.614 323.6L304.113 311.359Z" fill="#FBE525"/>
<path d="M426.416 315.032L415.917 302.791C407.477 292.94 407.477 278.368 415.917 268.517C424.907 258.025 424.907 242.491 415.917 231.97C407.477 222.119 407.477 207.546 415.917 197.696C424.733 187.408 424.182 171.99 414.612 162.402C404.519 152.259 388.162 152.259 378.069 162.402C368.499 172.019 367.948 187.408 376.764 197.696C385.204 207.546 385.204 222.119 376.764 231.97C367.774 242.462 367.774 257.996 376.764 268.517C385.204 278.368 385.204 292.94 376.764 302.791L366.266 315.032L376.764 327.272C385.204 337.123 385.204 351.695 376.764 361.546C367.774 372.038 367.774 387.572 376.764 398.094C385.204 407.944 385.204 422.517 376.764 432.368C367.948 442.656 368.499 458.073 378.069 467.662C388.162 477.804 404.519 477.804 414.612 467.662C424.182 458.044 424.733 442.656 415.917 432.368C407.477 422.517 407.477 407.944 415.917 398.094C424.907 387.602 424.907 372.067 415.917 361.546C407.477 351.695 407.477 337.123 415.917 327.272L426.416 315.032Z" fill="#FBE525"/>
<path d="M365.25 287.315L354.751 275.074C346.311 265.223 346.311 250.651 354.751 240.8C363.741 230.308 363.741 214.774 354.751 204.253C346.311 194.402 346.311 179.83 354.751 169.979C363.567 159.691 363.016 144.273 353.446 134.685C343.353 124.542 326.996 124.542 316.903 134.685C307.333 144.302 306.782 159.691 315.598 169.979C324.038 179.83 324.038 194.402 315.598 204.253C306.608 214.745 306.608 230.279 315.598 240.8C324.038 250.651 324.038 265.223 315.598 275.074L305.1 287.315L315.598 299.555C324.038 309.406 324.038 323.979 315.598 333.829C306.608 344.321 306.608 359.855 315.598 370.377C324.038 380.228 324.038 394.8 315.598 404.651C306.782 414.939 307.333 430.356 316.903 439.945C326.996 450.087 343.353 450.087 353.446 439.945C363.016 430.327 363.567 414.939 354.751 404.651C346.311 394.8 346.311 380.228 354.751 370.377C363.741 359.885 363.741 344.351 354.751 333.829C346.311 323.979 346.311 309.406 354.751 299.555L365.25 287.315Z" fill="#FBE525"/>
<path d="M487.552 290.958L477.054 278.718C468.614 268.867 468.614 254.294 477.054 244.444C486.044 233.951 486.044 218.417 477.054 207.896C468.614 198.045 468.614 183.473 477.054 173.622C485.87 163.334 485.319 147.917 475.749 138.328C465.656 128.186 449.299 128.186 439.206 138.328C429.635 147.946 429.084 163.334 437.901 173.622C446.341 183.473 446.341 198.045 437.901 207.896C428.91 218.388 428.91 233.922 437.901 244.444C446.341 254.294 446.341 268.867 437.901 278.718L427.402 290.958L437.901 303.199C446.341 313.05 446.341 327.622 437.901 337.473C428.91 347.965 428.91 363.499 437.901 374.02C446.341 383.871 446.341 398.443 437.901 408.294C429.084 418.582 429.635 434 439.206 443.588C449.299 453.731 465.656 453.731 475.749 443.588C485.319 433.971 485.87 418.582 477.054 408.294C468.614 398.443 468.614 383.871 477.054 374.02C486.044 363.528 486.044 347.994 477.054 337.473C468.614 327.622 468.614 313.05 477.054 303.199L487.552 290.958Z" fill="#FBE525"/>
<path d="M548.08 311.359L537.581 299.119C529.141 289.268 529.141 274.696 537.581 264.845C546.572 254.353 546.572 238.819 537.581 228.297C529.141 218.446 529.141 203.874 537.581 194.023C546.398 183.735 545.847 168.318 536.276 158.729C526.183 148.587 509.826 148.587 499.733 158.729C490.163 168.347 489.612 183.735 498.428 194.023C506.868 203.874 506.868 218.446 498.428 228.297C489.438 238.789 489.438 254.323 498.428 264.845C506.868 274.696 506.868 289.268 498.428 299.119L487.93 311.359L498.428 323.6C506.868 333.451 506.868 348.023 498.428 357.874C489.438 368.366 489.438 383.9 498.428 394.421C506.868 404.272 506.868 418.845 498.428 428.695C489.612 438.983 490.163 454.401 499.733 463.989C509.826 474.132 526.183 474.132 536.276 463.989C545.847 454.372 546.398 438.983 537.581 428.695C529.141 418.845 529.141 404.272 537.581 394.421C546.572 383.929 546.572 368.395 537.581 357.874C529.141 348.023 529.141 333.451 537.581 323.6L548.08 311.359Z" fill="#FBE525"/>
<path d="M670.38 315.032L659.882 302.791C651.442 292.94 651.442 278.368 659.882 268.517C668.872 258.025 668.872 242.491 659.882 231.97C651.442 222.119 651.442 207.547 659.882 197.696C668.698 187.408 668.147 171.99 658.577 162.402C648.484 152.259 632.127 152.259 622.034 162.402C612.464 172.019 611.913 187.408 620.729 197.696C629.169 207.547 629.169 222.119 620.729 231.97C611.739 242.462 611.739 257.996 620.729 268.517C629.169 278.368 629.169 292.94 620.729 302.791L610.23 315.032L620.729 327.272C629.169 337.123 629.169 351.696 620.729 361.546C611.739 372.038 611.739 387.573 620.729 398.094C629.169 407.945 629.169 422.517 620.729 432.368C611.913 442.656 612.464 458.073 622.034 467.662C632.127 477.804 648.484 477.804 658.577 467.662C668.147 458.044 668.698 442.656 659.882 432.368C651.442 422.517 651.442 407.945 659.882 398.094C668.872 387.602 668.872 372.068 659.882 361.546C651.442 351.696 651.442 337.123 659.882 327.272L670.38 315.032Z" fill="#FBE525"/>
<path d="M609.244 287.315L598.745 275.074C590.305 265.223 590.305 250.651 598.745 240.8C607.736 230.308 607.736 214.774 598.745 204.253C590.305 194.402 590.305 179.83 598.745 169.979C607.562 159.691 607.011 144.273 597.44 134.685C587.347 124.542 570.99 124.542 560.898 134.685C551.327 144.302 550.776 159.691 559.592 169.979C568.032 179.83 568.032 194.402 559.592 204.253C550.602 214.745 550.602 230.279 559.592 240.8C568.032 250.651 568.032 265.223 559.592 275.074L549.094 287.315L559.592 299.555C568.032 309.406 568.032 323.979 559.592 333.829C550.602 344.321 550.602 359.855 559.592 370.377C568.032 380.228 568.032 394.8 559.592 404.651C550.776 414.939 551.327 430.356 560.898 439.945C570.99 450.087 587.347 450.087 597.44 439.945C607.011 430.327 607.562 414.939 598.745 404.651C590.305 394.8 590.305 380.228 598.745 370.377C607.736 359.885 607.736 344.351 598.745 333.829C590.305 323.979 590.305 309.406 598.745 299.555L609.244 287.315Z" fill="#FBE525"/>
<path d="M731.515 290.958L721.017 278.718C712.577 268.867 712.577 254.294 721.017 244.444C730.007 233.951 730.007 218.417 721.017 207.896C712.577 198.045 712.577 183.473 721.017 173.622C729.833 163.334 729.282 147.917 719.711 138.328C709.619 128.186 693.262 128.186 683.169 138.328C673.598 147.946 673.047 163.334 681.864 173.622C690.304 183.473 690.304 198.045 681.864 207.896C672.873 218.388 672.873 233.922 681.864 244.444C690.304 254.294 690.304 268.867 681.864 278.718L671.365 290.958L681.864 303.199C690.304 313.05 690.304 327.622 681.864 337.473C672.873 347.965 672.873 363.499 681.864 374.02C690.304 383.871 690.304 398.443 681.864 408.294C673.047 418.582 673.598 434 683.169 443.588C693.262 453.731 709.619 453.731 719.711 443.588C729.282 433.971 729.833 418.582 721.017 408.294C712.577 398.443 712.577 383.871 721.017 374.02C730.007 363.528 730.007 347.994 721.017 337.473C712.577 327.622 712.577 313.05 721.017 303.199L731.515 290.958Z" fill="#FBE525"/>
<path d="M792.043 311.359L781.544 299.119C773.104 289.268 773.104 274.696 781.544 264.845C790.534 254.353 790.534 238.819 781.544 228.297C773.104 218.446 773.104 203.874 781.544 194.023C790.36 183.735 789.809 168.318 780.239 158.729C770.146 148.587 753.789 148.587 743.696 158.729C734.126 168.347 733.575 183.735 742.391 194.023C750.831 203.874 750.831 218.446 742.391 228.297C733.401 238.789 733.401 254.323 742.391 264.845C750.831 274.696 750.831 289.268 742.391 299.119L731.893 311.359L742.391 323.6C750.831 333.451 750.831 348.023 742.391 357.874C733.401 368.366 733.401 383.9 742.391 394.421C750.831 404.272 750.831 418.845 742.391 428.695C733.575 438.983 734.126 454.401 743.696 463.989C753.789 474.132 770.146 474.132 780.239 463.989C789.809 454.372 790.36 438.983 781.544 428.695C773.104 418.845 773.104 404.272 781.544 394.421C790.534 383.929 790.534 368.395 781.544 357.874C773.104 348.023 773.104 333.451 781.544 323.6L792.043 311.359Z" fill="#FBE525"/>
<path d="M914.343 315.032L903.845 302.791C895.405 292.94 895.405 278.368 903.845 268.517C912.835 258.025 912.835 242.491 903.845 231.97C895.405 222.119 895.405 207.547 903.845 197.696C912.661 187.408 912.11 171.99 902.54 162.402C892.447 152.259 876.09 152.259 865.997 162.402C856.427 172.019 855.876 187.408 864.692 197.696C873.132 207.547 873.132 222.119 864.692 231.97C855.702 242.462 855.702 257.996 864.692 268.517C873.132 278.368 873.132 292.94 864.692 302.791L854.193 315.032L864.692 327.272C873.132 337.123 873.132 351.696 864.692 361.546C855.702 372.038 855.702 387.573 864.692 398.094C873.132 407.945 873.132 422.517 864.692 432.368C855.876 442.656 856.427 458.073 865.997 467.662C876.09 477.804 892.447 477.804 902.54 467.662C912.11 458.044 912.661 442.656 903.845 432.368C895.405 422.517 895.405 407.945 903.845 398.094C912.835 387.602 912.835 372.068 903.845 361.546C895.405 351.696 895.405 337.123 903.845 327.272L914.343 315.032Z" fill="#FBE525"/>
<path d="M853.209 287.315L842.71 275.074C834.27 265.223 834.27 250.651 842.71 240.8C851.7 230.308 851.7 214.774 842.71 204.253C834.27 194.402 834.27 179.83 842.71 169.979C851.526 159.691 850.975 144.273 841.405 134.685C831.312 124.542 814.955 124.542 804.862 134.685C795.292 144.302 794.741 159.691 803.557 169.979C811.997 179.83 811.997 194.402 803.557 204.253C794.567 214.745 794.567 230.279 803.557 240.8C811.997 250.651 811.997 265.223 803.557 275.074L793.059 287.315L803.557 299.555C811.997 309.406 811.997 323.979 803.557 333.829C794.567 344.321 794.567 359.855 803.557 370.377C811.997 380.228 811.997 394.8 803.557 404.651C794.741 414.939 795.292 430.356 804.862 439.945C814.955 450.087 831.312 450.087 841.405 439.945C850.975 430.327 851.526 414.939 842.71 404.651C834.27 394.8 834.27 380.228 842.71 370.377C851.7 359.885 851.7 344.351 842.71 333.829C834.27 323.979 834.27 309.406 842.71 299.555L853.209 287.315Z" fill="#FBE525"/>
<path d="M975.48 290.958L964.981 278.718C956.542 268.867 956.542 254.294 964.981 244.444C973.972 233.951 973.972 218.417 964.981 207.896C956.542 198.045 956.542 183.473 964.981 173.622C973.798 163.334 973.247 147.917 963.676 138.328C953.584 128.186 937.227 128.186 927.134 138.328C917.563 147.946 917.012 163.334 925.829 173.622C934.268 183.473 934.268 198.045 925.829 207.896C916.838 218.388 916.838 233.922 925.829 244.444C934.268 254.294 934.268 268.867 925.829 278.718L915.33 290.958L925.829 303.199C934.268 313.05 934.268 327.622 925.829 337.473C916.838 347.965 916.838 363.499 925.829 374.02C934.268 383.871 934.268 398.443 925.829 408.294C917.012 418.582 917.563 434 927.134 443.588C937.227 453.731 953.584 453.731 963.676 443.588C973.247 433.971 973.798 418.582 964.981 408.294C956.542 398.443 956.542 383.871 964.981 374.02C973.972 363.528 973.972 347.994 964.981 337.473C956.542 327.622 956.542 313.05 964.981 303.199L975.48 290.958Z" fill="#FBE525"/>
<path d="M1036.04 311.359L1025.54 299.119C1017.1 289.268 1017.1 274.696 1025.54 264.845C1034.53 254.353 1034.53 238.819 1025.54 228.297C1017.1 218.446 1017.1 203.874 1025.54 194.023C1034.35 183.735 1033.8 168.318 1024.23 158.729C1014.14 148.587 997.783 148.587 987.69 158.729C978.12 168.347 977.569 183.735 986.385 194.023C994.825 203.874 994.825 218.446 986.385 228.297C977.395 238.789 977.395 254.323 986.385 264.845C994.825 274.696 994.825 289.268 986.385 299.119L975.887 311.359L986.385 323.6C994.825 333.451 994.825 348.023 986.385 357.874C977.395 368.366 977.395 383.9 986.385 394.421C994.825 404.272 994.825 418.845 986.385 428.695C977.569 438.983 978.12 454.401 987.69 463.989C997.783 474.132 1014.14 474.132 1024.23 463.989C1033.8 454.372 1034.35 438.983 1025.54 428.695C1017.1 418.845 1017.1 404.272 1025.54 394.421C1034.53 383.929 1034.53 368.395 1025.54 357.874C1017.1 348.023 1017.1 333.451 1025.54 323.6L1036.04 311.359Z" fill="#FBE525"/>
<path d="M1158.31 315.032L1147.81 302.791C1139.37 292.94 1139.37 278.368 1147.81 268.517C1156.8 258.025 1156.8 242.491 1147.81 231.97C1139.37 222.119 1139.37 207.546 1147.81 197.696C1156.63 187.408 1156.07 171.99 1146.5 162.402C1136.41 152.259 1120.05 152.259 1109.96 162.402C1100.39 172.019 1099.84 187.408 1108.66 197.696C1117.1 207.546 1117.1 222.119 1108.66 231.97C1099.67 242.462 1099.67 257.996 1108.66 268.517C1117.1 278.368 1117.1 292.94 1108.66 302.791L1098.16 315.032L1108.66 327.272C1117.1 337.123 1117.1 351.695 1108.66 361.546C1099.67 372.038 1099.67 387.572 1108.66 398.094C1117.1 407.944 1117.1 422.517 1108.66 432.368C1099.84 442.656 1100.39 458.073 1109.96 467.662C1120.05 477.804 1136.41 477.804 1146.5 467.662C1156.07 458.044 1156.63 442.656 1147.81 432.368C1139.37 422.517 1139.37 407.944 1147.81 398.094C1156.8 387.602 1156.8 372.067 1147.81 361.546C1139.37 351.695 1139.37 337.123 1147.81 327.272L1158.31 315.032Z" fill="#FBE525"/>
<path d="M1097.17 287.315L1086.67 275.074C1078.23 265.223 1078.23 250.651 1086.67 240.8C1095.66 230.308 1095.66 214.774 1086.67 204.253C1078.23 194.402 1078.23 179.83 1086.67 169.979C1095.49 159.691 1094.94 144.273 1085.37 134.685C1075.28 124.542 1058.92 124.542 1048.83 134.685C1039.25 144.302 1038.7 159.691 1047.52 169.979C1055.96 179.83 1055.96 194.402 1047.52 204.253C1038.53 214.745 1038.53 230.279 1047.52 240.8C1055.96 250.651 1055.96 265.223 1047.52 275.074L1037.02 287.315L1047.52 299.555C1055.96 309.406 1055.96 323.979 1047.52 333.829C1038.53 344.321 1038.53 359.855 1047.52 370.377C1055.96 380.228 1055.96 394.8 1047.52 404.651C1038.7 414.939 1039.25 430.356 1048.83 439.945C1058.92 450.087 1075.28 450.087 1085.37 439.945C1094.94 430.327 1095.49 414.939 1086.67 404.651C1078.23 394.8 1078.23 380.228 1086.67 370.377C1095.66 359.885 1095.66 344.351 1086.67 333.829C1078.23 323.979 1078.23 309.406 1086.67 299.555L1097.17 287.315Z" fill="#FBE525"/>
<path d="M1219.47 290.958L1208.97 278.718C1200.53 268.867 1200.53 254.294 1208.97 244.444C1217.96 233.951 1217.96 218.417 1208.97 207.896C1200.53 198.045 1200.53 183.473 1208.97 173.622C1217.79 163.334 1217.24 147.917 1207.67 138.328C1197.58 128.186 1181.22 128.186 1171.13 138.328C1161.56 147.946 1161 163.334 1169.82 173.622C1178.26 183.473 1178.26 198.045 1169.82 207.896C1160.83 218.388 1160.83 233.922 1169.82 244.444C1178.26 254.294 1178.26 268.867 1169.82 278.718L1159.32 290.958L1169.82 303.199C1178.26 313.05 1178.26 327.622 1169.82 337.473C1160.83 347.965 1160.83 363.499 1169.82 374.02C1178.26 383.871 1178.26 398.443 1169.82 408.294C1161 418.582 1161.56 434 1171.13 443.588C1181.22 453.731 1197.58 453.731 1207.67 443.588C1217.24 433.971 1217.79 418.582 1208.97 408.294C1200.53 398.443 1200.53 383.871 1208.97 374.02C1217.96 363.528 1217.96 347.994 1208.97 337.473C1200.53 327.622 1200.53 313.05 1208.97 303.199L1219.47 290.958Z" fill="#FBE525"/>
<path d="M1280 311.359L1269.5 299.119C1261.06 289.268 1261.06 274.696 1269.5 264.845C1278.49 254.353 1278.49 238.819 1269.5 228.297C1261.06 218.446 1261.06 203.874 1269.5 194.023C1278.32 183.735 1277.77 168.318 1268.2 158.729C1258.1 148.587 1241.75 148.587 1231.65 158.729C1222.08 168.347 1221.53 183.735 1230.35 194.023C1238.79 203.874 1238.79 218.446 1230.35 228.297C1221.36 238.789 1221.36 254.323 1230.35 264.845C1238.79 274.696 1238.79 289.268 1230.35 299.119L1219.85 311.359L1230.35 323.6C1238.79 333.451 1238.79 348.023 1230.35 357.874C1221.36 368.366 1221.36 383.9 1230.35 394.421C1238.79 404.272 1238.79 418.845 1230.35 428.695C1221.53 438.983 1222.08 454.401 1231.65 463.989C1241.75 474.132 1258.1 474.132 1268.2 463.989C1277.77 454.372 1278.32 438.983 1269.5 428.695C1261.06 418.845 1261.06 404.272 1269.5 394.421C1278.49 383.929 1278.49 368.395 1269.5 357.874C1261.06 348.023 1261.06 333.451 1269.5 323.6L1280 311.359Z" fill="#FBE525"/>
</svg>
